<?xml version="1.0" standalone="no"?>
<!DOCTYPE svg PUBLIC "-//W3C//DTD SVG 1.1//EN" "http://www.w3.org/Graphics/SVG/1.1/DTD/svg11.dtd">
<svg xmlns="http://www.w3.org/2000/svg" xmlns:xlink="http://www.w3.org/1999/xlink" width="375" zoomAndPan="magnify" viewBox="0 0 375 374.999991" height="375" preserveAspectRatio="xMidYMid meet" version="1.0"><defs><g><g id="id1"/></g></defs><path fill="rgb(1.959229%, 56.469727%, 78.819275%)" d="M 89.585938 128.640625 L 89.585938 246.367188 L 63.335938 246.367188 L 63.335938 128.640625 L 89.585938 128.640625 " fill-opacity="1" fill-rule="nonzero"/><path fill="rgb(1.959229%, 56.469727%, 78.819275%)" d="M 63.183594 128.628906 L 180.910156 128.628906 L 180.910156 154.878906 L 63.183594 154.878906 L 63.183594 128.628906 " fill-opacity="1" fill-rule="nonzero"/><path fill="rgb(1.959229%, 56.469727%, 78.819275%)" d="M 194.09375 128.628906 L 311.820312 128.628906 L 311.820312 154.878906 L 194.09375 154.878906 L 194.09375 128.628906 " fill-opacity="1" fill-rule="nonzero"/><path fill="rgb(1.959229%, 56.469727%, 78.819275%)" d="M 220.496094 128.640625 L 220.496094 246.367188 L 194.246094 246.367188 L 194.246094 128.640625 L 220.496094 128.640625 " fill-opacity="1" fill-rule="nonzero"/><path fill="rgb(1.959229%, 56.469727%, 78.819275%)" d="M 194.09375 219.953125 L 311.820312 219.953125 L 311.820312 246.203125 L 194.09375 246.203125 L 194.09375 219.953125 " fill-opacity="1" fill-rule="nonzero"/><g fill="rgb(0%, 20.779419%, 34.899902%)" fill-opacity="1"><g transform="translate(113.734487, 183.299753)"><g><path d="M 4.921875 -5.78125 L 8.671875 -5.78125 L 7.734375 -8.9375 C 7.359375 -10.195312 7.066406 -11.210938 6.859375 -11.984375 L 6.75 -11.984375 C 6.46875 -10.921875 6.179688 -9.90625 5.890625 -8.9375 Z M -0.078125 0 L 5.203125 -14.9375 L 8.421875 -14.9375 L 13.6875 0 L 10.5 0 L 9.453125 -3.34375 L 4.171875 -3.34375 L 3.125 0 Z M -0.078125 0 "/></g></g></g><g fill="rgb(0%, 20.779419%, 34.899902%)" fill-opacity="1"><g transform="translate(127.344074, 183.299753)"><g><path d="M 1.4375 0 L 1.4375 -14.9375 L 4.46875 -14.9375 L 4.46875 -8.875 L 4.515625 -8.875 L 9.71875 -14.9375 L 13.515625 -14.9375 L 7.65625 -8.375 L 13.546875 0 L 9.9375 0 L 5.765625 -6.234375 L 4.46875 -4.78125 L 4.46875 0 Z M 1.4375 0 "/></g></g></g><g fill="rgb(0%, 20.779419%, 34.899902%)" fill-opacity="1"><g transform="translate(140.735034, 183.299753)"><g><path d="M 0.65625 -7.46875 C 0.65625 -9.75 1.273438 -11.617188 2.515625 -13.078125 C 3.765625 -14.535156 5.4375 -15.265625 7.53125 -15.265625 C 8.34375 -15.265625 9.09375 -15.125 9.78125 -14.84375 C 10.476562 -14.570312 11.046875 -14.21875 11.484375 -13.78125 C 11.929688 -13.34375 12.289062 -12.9375 12.5625 -12.5625 C 12.832031 -12.1875 13.039062 -11.816406 13.1875 -11.453125 L 10.578125 -10.625 C 10.378906 -10.914062 10.210938 -11.144531 10.078125 -11.3125 C 9.953125 -11.488281 9.757812 -11.695312 9.5 -11.9375 C 9.238281 -12.1875 8.945312 -12.367188 8.625 -12.484375 C 8.3125 -12.597656 7.953125 -12.65625 7.546875 -12.65625 C 6.367188 -12.65625 5.445312 -12.1875 4.78125 -11.25 C 4.113281 -10.3125 3.78125 -9.050781 3.78125 -7.46875 C 3.78125 -5.894531 4.125 -4.632812 4.8125 -3.6875 C 5.507812 -2.738281 6.382812 -2.265625 7.4375 -2.265625 C 8.320312 -2.265625 9.03125 -2.492188 9.5625 -2.953125 C 10.09375 -3.410156 10.410156 -4.03125 10.515625 -4.8125 C 10.566406 -5.125 10.59375 -5.492188 10.59375 -5.921875 L 7.28125 -5.921875 L 7.28125 -8.515625 L 13.53125 -8.515625 L 13.53125 0 L 11.46875 0 L 11.203125 -1.125 C 10.378906 -0.15625 9.085938 0.328125 7.328125 0.328125 C 5.441406 0.328125 3.859375 -0.378906 2.578125 -1.796875 C 1.296875 -3.210938 0.65625 -5.101562 0.65625 -7.46875 Z M 0.65625 -7.46875 "/></g></g></g><g fill="rgb(0%, 20.779419%, 34.899902%)" fill-opacity="1"><g transform="translate(155.091601, 183.299753)"><g><path d="M 1.4375 0 L 1.4375 -14.9375 L 11.53125 -14.9375 L 11.53125 -12.328125 L 4.46875 -12.328125 L 4.46875 -8.984375 L 10.8125 -8.984375 L 10.8125 -6.4375 L 4.46875 -6.4375 L 4.46875 -2.59375 L 11.71875 -2.59375 L 11.71875 0 Z M 1.4375 0 "/></g></g></g><g fill="rgb(0%, 20.779419%, 34.899902%)" fill-opacity="1"><g transform="translate(167.280107, 183.299753)"><g><path d="M 0.65625 -7.46875 C 0.65625 -9.84375 1.285156 -11.734375 2.546875 -13.140625 C 3.804688 -14.554688 5.425781 -15.265625 7.40625 -15.265625 C 8.726562 -15.265625 9.867188 -14.898438 10.828125 -14.171875 C 11.785156 -13.453125 12.492188 -12.546875 12.953125 -11.453125 L 10.34375 -10.609375 C 10 -11.222656 9.601562 -11.71875 9.15625 -12.09375 C 8.707031 -12.46875 8.117188 -12.65625 7.390625 -12.65625 C 6.273438 -12.65625 5.394531 -12.179688 4.75 -11.234375 C 4.101562 -10.296875 3.78125 -9.039062 3.78125 -7.46875 C 3.78125 -5.882812 4.109375 -4.617188 4.765625 -3.671875 C 5.421875 -2.734375 6.296875 -2.265625 7.390625 -2.265625 C 8.117188 -2.265625 8.769531 -2.5 9.34375 -2.96875 C 9.925781 -3.445312 10.335938 -4.019531 10.578125 -4.6875 L 13.3125 -3.828125 C 13.164062 -3.460938 12.988281 -3.101562 12.78125 -2.75 C 12.570312 -2.394531 12.296875 -2.023438 11.953125 -1.640625 C 11.609375 -1.265625 11.222656 -0.929688 10.796875 -0.640625 C 10.378906 -0.359375 9.875 -0.128906 9.28125 0.046875 C 8.695312 0.234375 8.070312 0.328125 7.40625 0.328125 C 5.457031 0.328125 3.84375 -0.363281 2.5625 -1.75 C 1.289062 -3.132812 0.65625 -5.039062 0.65625 -7.46875 Z M 0.65625 -7.46875 "/></g></g></g><g fill="rgb(0%, 20.779419%, 34.899902%)" fill-opacity="1"><g transform="translate(98.910269, 208.799751)"><g><path d="M 4.46875 -8.234375 L 7.078125 -8.234375 C 8.628906 -8.234375 9.40625 -8.941406 9.40625 -10.359375 C 9.40625 -10.960938 9.195312 -11.441406 8.78125 -11.796875 C 8.375 -12.148438 7.800781 -12.328125 7.0625 -12.328125 L 4.46875 -12.328125 Z M 1.4375 0 L 1.4375 -14.9375 L 7.625 -14.9375 C 9.207031 -14.9375 10.421875 -14.523438 11.265625 -13.703125 C 12.117188 -12.890625 12.546875 -11.859375 12.546875 -10.609375 C 12.546875 -9.585938 12.335938 -8.765625 11.921875 -8.140625 C 11.515625 -7.515625 11.03125 -7.070312 10.46875 -6.8125 C 10.894531 -6.476562 11.195312 -6.144531 11.375 -5.8125 C 11.550781 -5.488281 11.695312 -4.957031 11.8125 -4.21875 C 12.082031 -2.851562 12.65625 -1.445312 13.53125 0 L 10.140625 0 C 9.441406 -1.132812 8.941406 -2.46875 8.640625 -4 C 8.515625 -4.582031 8.34375 -5.003906 8.125 -5.265625 C 7.90625 -5.535156 7.566406 -5.671875 7.109375 -5.671875 L 4.46875 -5.671875 L 4.46875 0 Z M 1.4375 0 "/></g></g></g><g fill="rgb(0%, 20.779419%, 34.899902%)" fill-opacity="1"><g transform="translate(112.501638, 208.799751)"><g><path d="M 3.5625 -5.484375 C 3.5625 -4.285156 3.785156 -3.429688 4.234375 -2.921875 C 4.679688 -2.410156 5.175781 -2.15625 5.71875 -2.15625 C 5.957031 -2.15625 6.1875 -2.207031 6.40625 -2.3125 C 6.632812 -2.414062 6.863281 -2.578125 7.09375 -2.796875 C 7.320312 -3.023438 7.507812 -3.375 7.65625 -3.84375 C 7.800781 -4.3125 7.875 -4.859375 7.875 -5.484375 C 7.875 -6.128906 7.800781 -6.679688 7.65625 -7.140625 C 7.519531 -7.609375 7.332031 -7.957031 7.09375 -8.1875 C 6.863281 -8.414062 6.632812 -8.578125 6.40625 -8.671875 C 6.1875 -8.773438 5.957031 -8.828125 5.71875 -8.828125 C 5.175781 -8.828125 4.679688 -8.570312 4.234375 -8.0625 C 3.785156 -7.5625 3.5625 -6.703125 3.5625 -5.484375 Z M 0.5625 -5.484375 C 0.5625 -6.242188 0.660156 -6.957031 0.859375 -7.625 C 1.054688 -8.300781 1.347656 -8.921875 1.734375 -9.484375 C 2.128906 -10.046875 2.671875 -10.488281 3.359375 -10.8125 C 4.046875 -11.144531 4.832031 -11.3125 5.71875 -11.3125 C 6.613281 -11.3125 7.398438 -11.144531 8.078125 -10.8125 C 8.753906 -10.488281 9.289062 -10.046875 9.6875 -9.484375 C 10.082031 -8.921875 10.378906 -8.300781 10.578125 -7.625 C 10.773438 -6.957031 10.875 -6.242188 10.875 -5.484375 C 10.875 -5.003906 10.828125 -4.519531 10.734375 -4.03125 C 10.648438 -3.550781 10.488281 -3.039062 10.25 -2.5 C 10.019531 -1.96875 9.722656 -1.492188 9.359375 -1.078125 C 8.992188 -0.671875 8.492188 -0.332031 7.859375 -0.0625 C 7.234375 0.195312 6.519531 0.328125 5.71875 0.328125 C 4.9375 0.328125 4.234375 0.203125 3.609375 -0.046875 C 2.992188 -0.304688 2.492188 -0.632812 2.109375 -1.03125 C 1.734375 -1.425781 1.425781 -1.882812 1.1875 -2.40625 C 0.957031 -2.9375 0.796875 -3.453125 0.703125 -3.953125 C 0.609375 -4.453125 0.5625 -4.960938 0.5625 -5.484375 Z M 0.5625 -5.484375 "/></g></g></g><g fill="rgb(0%, 20.779419%, 34.899902%)" fill-opacity="1"><g transform="translate(123.906727, 208.799751)"><g><path d="M 1.234375 0 L 1.234375 -15.390625 L 4.125 -15.390625 L 4.125 -10.1875 C 4.84375 -10.9375 5.679688 -11.3125 6.640625 -11.3125 C 7.972656 -11.3125 9.085938 -10.796875 9.984375 -9.765625 C 10.878906 -8.734375 11.328125 -7.3125 11.328125 -5.5 C 11.328125 -4.476562 11.179688 -3.578125 10.890625 -2.796875 C 10.609375 -2.015625 10.234375 -1.40625 9.765625 -0.96875 C 9.304688 -0.53125 8.816406 -0.207031 8.296875 0 C 7.773438 0.21875 7.238281 0.328125 6.6875 0.328125 C 6.113281 0.328125 5.582031 0.1875 5.09375 -0.09375 C 4.613281 -0.375 4.265625 -0.703125 4.046875 -1.078125 L 4.046875 0 Z M 4.109375 -5.5 C 4.109375 -4.457031 4.289062 -3.640625 4.65625 -3.046875 C 5.03125 -2.453125 5.550781 -2.15625 6.21875 -2.15625 C 6.832031 -2.15625 7.332031 -2.429688 7.71875 -2.984375 C 8.113281 -3.546875 8.3125 -4.382812 8.3125 -5.5 C 8.3125 -6.539062 8.128906 -7.351562 7.765625 -7.9375 C 7.398438 -8.53125 6.882812 -8.828125 6.21875 -8.828125 C 5.507812 -8.828125 4.976562 -8.519531 4.625 -7.90625 C 4.28125 -7.300781 4.109375 -6.5 4.109375 -5.5 Z M 4.109375 -5.5 "/></g></g></g><g fill="rgb(0%, 20.779419%, 34.899902%)" fill-opacity="1"><g transform="translate(135.767292, 208.799751)"><g><path d="M 3.5625 -5.484375 C 3.5625 -4.285156 3.785156 -3.429688 4.234375 -2.921875 C 4.679688 -2.410156 5.175781 -2.15625 5.71875 -2.15625 C 5.957031 -2.15625 6.1875 -2.207031 6.40625 -2.3125 C 6.632812 -2.414062 6.863281 -2.578125 7.09375 -2.796875 C 7.320312 -3.023438 7.507812 -3.375 7.65625 -3.84375 C 7.800781 -4.3125 7.875 -4.859375 7.875 -5.484375 C 7.875 -6.128906 7.800781 -6.679688 7.65625 -7.140625 C 7.519531 -7.609375 7.332031 -7.957031 7.09375 -8.1875 C 6.863281 -8.414062 6.632812 -8.578125 6.40625 -8.671875 C 6.1875 -8.773438 5.957031 -8.828125 5.71875 -8.828125 C 5.175781 -8.828125 4.679688 -8.570312 4.234375 -8.0625 C 3.785156 -7.5625 3.5625 -6.703125 3.5625 -5.484375 Z M 0.5625 -5.484375 C 0.5625 -6.242188 0.660156 -6.957031 0.859375 -7.625 C 1.054688 -8.300781 1.347656 -8.921875 1.734375 -9.484375 C 2.128906 -10.046875 2.671875 -10.488281 3.359375 -10.8125 C 4.046875 -11.144531 4.832031 -11.3125 5.71875 -11.3125 C 6.613281 -11.3125 7.398438 -11.144531 8.078125 -10.8125 C 8.753906 -10.488281 9.289062 -10.046875 9.6875 -9.484375 C 10.082031 -8.921875 10.378906 -8.300781 10.578125 -7.625 C 10.773438 -6.957031 10.875 -6.242188 10.875 -5.484375 C 10.875 -5.003906 10.828125 -4.519531 10.734375 -4.03125 C 10.648438 -3.550781 10.488281 -3.039062 10.25 -2.5 C 10.019531 -1.96875 9.722656 -1.492188 9.359375 -1.078125 C 8.992188 -0.671875 8.492188 -0.332031 7.859375 -0.0625 C 7.234375 0.195312 6.519531 0.328125 5.71875 0.328125 C 4.9375 0.328125 4.234375 0.203125 3.609375 -0.046875 C 2.992188 -0.304688 2.492188 -0.632812 2.109375 -1.03125 C 1.734375 -1.425781 1.425781 -1.882812 1.1875 -2.40625 C 0.957031 -2.9375 0.796875 -3.453125 0.703125 -3.953125 C 0.609375 -4.453125 0.5625 -4.960938 0.5625 -5.484375 Z M 0.5625 -5.484375 "/></g></g></g><g fill="rgb(0%, 20.779419%, 34.899902%)" fill-opacity="1"><g transform="translate(147.172381, 208.799751)"><g><path d="M 0.3125 -8.515625 L 0.3125 -10.984375 L 1.875 -10.984375 L 1.875 -14.09375 L 4.765625 -14.09375 L 4.765625 -10.984375 L 7.03125 -10.984375 L 7.03125 -8.515625 L 4.765625 -8.515625 L 4.765625 -3.6875 C 4.765625 -2.882812 5.113281 -2.484375 5.8125 -2.484375 L 7.0625 -2.484375 L 7.0625 0 L 5.453125 0 C 3.066406 0 1.875 -1.171875 1.875 -3.515625 L 1.875 -8.515625 Z M 0.3125 -8.515625 "/></g></g></g><g fill="rgb(0%, 20.779419%, 34.899902%)" fill-opacity="1"><g transform="translate(154.751482, 208.799751)"><g><path d="M 1.234375 -12.140625 L 1.234375 -15.140625 L 4.171875 -15.140625 L 4.171875 -12.140625 Z M 1.28125 0 L 1.28125 -10.984375 L 4.15625 -10.984375 L 4.15625 0 Z M 1.28125 0 "/></g></g></g><g fill="rgb(0%, 20.779419%, 34.899902%)" fill-opacity="1"><g transform="translate(160.162523, 208.799751)"><g><path d="M 0.5625 -5.484375 C 0.5625 -7.285156 1.046875 -8.707031 2.015625 -9.75 C 2.992188 -10.789062 4.238281 -11.3125 5.75 -11.3125 C 6.914062 -11.3125 7.878906 -10.953125 8.640625 -10.234375 C 9.410156 -9.515625 9.882812 -8.710938 10.0625 -7.828125 L 7.609375 -7.140625 C 7.484375 -7.597656 7.269531 -7.992188 6.96875 -8.328125 C 6.664062 -8.660156 6.273438 -8.828125 5.796875 -8.828125 C 5.066406 -8.828125 4.515625 -8.507812 4.140625 -7.875 C 3.765625 -7.238281 3.578125 -6.441406 3.578125 -5.484375 C 3.578125 -4.398438 3.785156 -3.570312 4.203125 -3 C 4.617188 -2.4375 5.148438 -2.15625 5.796875 -2.15625 C 6.328125 -2.15625 6.773438 -2.335938 7.140625 -2.703125 C 7.503906 -3.066406 7.742188 -3.484375 7.859375 -3.953125 L 10.328125 -3.296875 C 10.117188 -2.347656 9.585938 -1.503906 8.734375 -0.765625 C 7.878906 -0.0351562 6.882812 0.328125 5.75 0.328125 C 4.21875 0.328125 2.96875 -0.195312 2 -1.25 C 1.039062 -2.3125 0.5625 -3.722656 0.5625 -5.484375 Z M 0.5625 -5.484375 "/></g></g></g><g fill="rgb(0%, 20.779419%, 34.899902%)" fill-opacity="1"><g transform="translate(170.765977, 208.799751)"><g><path d="M 0.359375 -2.375 L 2.40625 -3.578125 C 3.144531 -2.523438 4.078125 -2 5.203125 -2 C 5.660156 -2 6.019531 -2.097656 6.28125 -2.296875 C 6.539062 -2.503906 6.671875 -2.753906 6.671875 -3.046875 C 6.671875 -3.140625 6.65625 -3.234375 6.625 -3.328125 C 6.59375 -3.429688 6.539062 -3.519531 6.46875 -3.59375 C 6.40625 -3.675781 6.335938 -3.75 6.265625 -3.8125 C 6.191406 -3.875 6.09375 -3.9375 5.96875 -4 C 5.84375 -4.070312 5.726562 -4.128906 5.625 -4.171875 C 5.53125 -4.210938 5.398438 -4.257812 5.234375 -4.3125 C 5.078125 -4.375 4.941406 -4.421875 4.828125 -4.453125 C 4.722656 -4.484375 4.570312 -4.53125 4.375 -4.59375 C 4.175781 -4.65625 4.03125 -4.703125 3.9375 -4.734375 C 3.007812 -5.046875 2.269531 -5.441406 1.71875 -5.921875 C 1.164062 -6.410156 0.890625 -7.125 0.890625 -8.0625 C 0.890625 -9.0625 1.316406 -9.851562 2.171875 -10.4375 C 3.035156 -11.019531 4.050781 -11.3125 5.21875 -11.3125 C 6.125 -11.3125 6.992188 -11.066406 7.828125 -10.578125 C 8.660156 -10.097656 9.285156 -9.472656 9.703125 -8.703125 L 7.78125 -7.5625 C 7.007812 -8.5 6.164062 -8.96875 5.25 -8.96875 C 4.8125 -8.96875 4.46875 -8.875 4.21875 -8.6875 C 3.96875 -8.507812 3.84375 -8.28125 3.84375 -8 C 3.84375 -7.863281 3.867188 -7.738281 3.921875 -7.625 C 3.972656 -7.507812 4.054688 -7.40625 4.171875 -7.3125 C 4.285156 -7.21875 4.394531 -7.132812 4.5 -7.0625 C 4.601562 -6.988281 4.753906 -6.914062 4.953125 -6.84375 C 5.148438 -6.769531 5.304688 -6.707031 5.421875 -6.65625 C 5.535156 -6.613281 5.71875 -6.550781 5.96875 -6.46875 C 6.226562 -6.394531 6.414062 -6.34375 6.53125 -6.3125 C 8.625 -5.601562 9.671875 -4.503906 9.671875 -3.015625 C 9.671875 -2.085938 9.289062 -1.296875 8.53125 -0.640625 C 7.78125 0.00390625 6.695312 0.328125 5.28125 0.328125 C 4.175781 0.328125 3.1875 0.0820312 2.3125 -0.40625 C 1.445312 -0.90625 0.796875 -1.5625 0.359375 -2.375 Z M 0.359375 -2.375 "/></g></g></g><g fill="rgb(0%, 20.779419%, 34.899902%)" fill-opacity="1"><g transform="translate(138.613391, 234.299749)"><g><path d="M 0.65625 -7.46875 C 0.65625 -9.84375 1.285156 -11.734375 2.546875 -13.140625 C 3.804688 -14.554688 5.425781 -15.265625 7.40625 -15.265625 C 8.726562 -15.265625 9.867188 -14.898438 10.828125 -14.171875 C 11.785156 -13.453125 12.492188 -12.546875 12.953125 -11.453125 L 10.34375 -10.609375 C 10 -11.222656 9.601562 -11.71875 9.15625 -12.09375 C 8.707031 -12.46875 8.117188 -12.65625 7.390625 -12.65625 C 6.273438 -12.65625 5.394531 -12.179688 4.75 -11.234375 C 4.101562 -10.296875 3.78125 -9.039062 3.78125 -7.46875 C 3.78125 -5.882812 4.109375 -4.617188 4.765625 -3.671875 C 5.421875 -2.734375 6.296875 -2.265625 7.390625 -2.265625 C 8.117188 -2.265625 8.769531 -2.5 9.34375 -2.96875 C 9.925781 -3.445312 10.335938 -4.019531 10.578125 -4.6875 L 13.3125 -3.828125 C 13.164062 -3.460938 12.988281 -3.101562 12.78125 -2.75 C 12.570312 -2.394531 12.296875 -2.023438 11.953125 -1.640625 C 11.609375 -1.265625 11.222656 -0.929688 10.796875 -0.640625 C 10.378906 -0.359375 9.875 -0.128906 9.28125 0.046875 C 8.695312 0.234375 8.070312 0.328125 7.40625 0.328125 C 5.457031 0.328125 3.84375 -0.363281 2.5625 -1.75 C 1.289062 -3.132812 0.65625 -5.039062 0.65625 -7.46875 Z M 0.65625 -7.46875 "/></g></g></g><g fill="rgb(0%, 20.779419%, 34.899902%)" fill-opacity="1"><g transform="translate(152.241198, 234.299749)"><g><path d="M 1.3125 0 L 1.3125 -15.390625 L 4.234375 -15.390625 L 4.234375 0 Z M 1.3125 0 "/></g></g></g><g fill="rgb(0%, 20.779419%, 34.899902%)" fill-opacity="1"><g transform="translate(157.761553, 234.299749)"><g><path d="M 0.984375 -4.046875 L 0.984375 -10.984375 L 3.90625 -10.984375 L 3.90625 -4.359375 C 3.90625 -2.890625 4.394531 -2.15625 5.375 -2.15625 C 5.957031 -2.15625 6.414062 -2.425781 6.75 -2.96875 C 7.082031 -3.507812 7.25 -4.148438 7.25 -4.890625 L 7.25 -10.984375 L 10.171875 -10.984375 L 10.171875 0 L 7.390625 0 L 7.390625 -0.984375 L 7.328125 -0.984375 C 7.117188 -0.617188 6.785156 -0.304688 6.328125 -0.046875 C 5.867188 0.203125 5.335938 0.328125 4.734375 0.328125 C 4.421875 0.328125 4.113281 0.300781 3.8125 0.25 C 3.519531 0.195312 3.191406 0.078125 2.828125 -0.109375 C 2.472656 -0.304688 2.164062 -0.554688 1.90625 -0.859375 C 1.644531 -1.160156 1.425781 -1.585938 1.25 -2.140625 C 1.070312 -2.691406 0.984375 -3.328125 0.984375 -4.046875 Z M 0.984375 -4.046875 "/></g></g></g><g fill="rgb(0%, 20.779419%, 34.899902%)" fill-opacity="1"><g transform="translate(169.057329, 234.299749)"><g><path d="M 1.234375 0 L 1.234375 -15.390625 L 4.125 -15.390625 L 4.125 -10.1875 C 4.84375 -10.9375 5.679688 -11.3125 6.640625 -11.3125 C 7.972656 -11.3125 9.085938 -10.796875 9.984375 -9.765625 C 10.878906 -8.734375 11.328125 -7.3125 11.328125 -5.5 C 11.328125 -4.476562 11.179688 -3.578125 10.890625 -2.796875 C 10.609375 -2.015625 10.234375 -1.40625 9.765625 -0.96875 C 9.304688 -0.53125 8.816406 -0.207031 8.296875 0 C 7.773438 0.21875 7.238281 0.328125 6.6875 0.328125 C 6.113281 0.328125 5.582031 0.1875 5.09375 -0.09375 C 4.613281 -0.375 4.265625 -0.703125 4.046875 -1.078125 L 4.046875 0 Z M 4.109375 -5.5 C 4.109375 -4.457031 4.289062 -3.640625 4.65625 -3.046875 C 5.03125 -2.453125 5.550781 -2.15625 6.21875 -2.15625 C 6.832031 -2.15625 7.332031 -2.429688 7.71875 -2.984375 C 8.113281 -3.546875 8.3125 -4.382812 8.3125 -5.5 C 8.3125 -6.539062 8.128906 -7.351562 7.765625 -7.9375 C 7.398438 -8.53125 6.882812 -8.828125 6.21875 -8.828125 C 5.507812 -8.828125 4.976562 -8.519531 4.625 -7.90625 C 4.28125 -7.300781 4.109375 -6.5 4.109375 -5.5 Z M 4.109375 -5.5 "/></g></g></g></svg>